<svg width="681" height="818" xmlns="http://www.w3.org/2000/svg" xmlns:xlink="http://www.w3.org/1999/xlink"><defs><path id="a" d="M0 .132h45.654v45.653H0z"/></defs><g fill="none" fill-rule="evenodd"><path d="M1.428 442.743V179.282m122.1 609.396V91.103m13.565 697.575V91.103m122.1 716.228V30.673M272.76 807.33V30.673m122.098 786.831V27.15m13.566 761.529V27.149m122.1 761.529V27.149m13.566 737.788V27.15m122.1 737.788V74.763m13.565 657.955V74.763" stroke="#B3D0DA"/><path stroke="#EC407A" stroke-width="1.3" d="M258.777.678v121.417H136.758V74.927"/><path d="M471.544 671.462c-14.5 0-26.255-11.755-26.255-26.255 0-14.5 11.754-26.254 26.255-26.254 14.5 0 26.255 11.754 26.255 26.254 0 14.499-11.755 26.255-26.255 26.255z" stroke="#039BE5" stroke-width="1.3"/><path stroke="#FF9802" stroke-width="1.3" d="M544.491 69.526v100.43H666.59v-68.494"/><path d="M1.848 339.252h54.858V264.54H1.848v74.713zm66.135 74.614h55.356V264.54H67.983v149.327z" stroke="#2196F3" stroke-width="1.3"/><path stroke="#FF9802" stroke-width="1.3" d="M273.17 401.047v73.68h55.356v-34.89z"/><path d="M259.179 589.277c-91.546 0-165.76-74.214-165.76-165.76 0-91.548 74.214-165.761 165.76-165.761" stroke="#B0BEC5" stroke-dasharray="10,7"/><path stroke="#EC407A" stroke-width="1.3" fill-rule="nonzero" d="M408.83 508.728h257.756v137.357H408.83z"/><path fill="#76BF5F" d="M433.584 279.656v-117.71H259.439v117.71l-28.663 30.605v4.303h231.47v-4.303z"/><path fill="#4B7D2F" d="M262.995 276.409h167.032V165.337H262.995z"/><path d="M259.603 279.8H433.42V161.945H259.603V279.8zm6.984-7.051h159.848V168.997H266.587v103.752z" fill="#76BF5F"/><path fill="#4B7D2F" fill-rule="nonzero" d="M183.294 181.87l-46.633 32.644v-65.287z"/><g><path fill="#76BF5F" d="M647.085 235.71v62.744l-13.316-17.408h-48.58V235.71z"/><path fill="#4B7D2F" d="M555.514 213.666v72.917l14.352-20.23h56.87v-52.687z"/></g><g><path fill="#4B7D2F" d="M503.793 83.092h5.935V76.31h-5.935z"/><g transform="translate(484.292 81.397)"><mask id="b" fill="#fff"><use xlink:href="#a"/></mask><path d="M45.654 22.959c0 12.607-10.22 22.826-22.827 22.826C10.22 45.785 0 35.565 0 22.96 0 10.352 10.22.132 22.827.132c12.607 0 22.827 10.22 22.827 22.827" fill="#76BF5F" mask="url(#b)"/></g><path fill="#4B7D2F" d="M519.172 92.302l-14.356 9.75 4.605 4.606z"/></g></g></svg>
